<svg xmlns="http://www.w3.org/2000/svg" viewBox="0 0 56.66 56.65"><defs><style>.cls-1{fill:#fff;}</style></defs><g id="Layer_2" data-name="Layer 2"><g id="Layer_1-2" data-name="Layer 1"><path class="cls-1" d="M28.33,56.65a1.54,1.54,0,1,1,0-3.07A25.27,25.27,0,0,0,41.39,50H10.61a1.57,1.57,0,0,1-1-.38,28.3,28.3,0,0,1-5.8-7.09,1.55,1.55,0,0,1,0-1.53,1.52,1.52,0,0,1,1.33-.77H50.64a25.21,25.21,0,0,0,1.57-3.62H9.28l-6.93-.05A1.54,1.54,0,0,1,.88,35.35a28.49,28.49,0,0,1-.88-7,1.54,1.54,0,0,1,1.54-1.54H55.12a1.54,1.54,0,1,1,0,3.07h-52a25.37,25.37,0,0,0,.47,3.59l5.7,0h45a1.54,1.54,0,0,1,1.48,1.92,28.06,28.06,0,0,1-2.89,7.07,1.54,1.54,0,0,1-1.33.77H8a25.4,25.4,0,0,0,3.25,3.63l34.87,0h0a1.54,1.54,0,0,1,1,2.69A28.27,28.27,0,0,1,28.33,56.65Z"/><path class="cls-1" d="M54.27,23.17A1.53,1.53,0,0,1,52.79,22,25.27,25.27,0,0,0,4.44,20.09h7.1l8-6.15a1.53,1.53,0,0,1,1.89,0l7.46,5.93H44.14a1.54,1.54,0,0,1,0,3.07H28.33a1.51,1.51,0,0,1-1-.33l-6.94-5.52L13,22.84a1.53,1.53,0,0,1-.94.32H2.38a1.5,1.5,0,0,1-1.21-.59,1.52,1.52,0,0,1-.28-1.32,28.34,28.34,0,0,1,54.87,0,1.54,1.54,0,0,1-1.1,1.87A1.74,1.74,0,0,1,54.27,23.17Z"/><path class="cls-1" d="M50.38,15.86H35.31a1.62,1.62,0,0,1-1-.32l-6.4-5L25,13.4a1.53,1.53,0,0,1-2.12-2.22l3.94-3.77a1.55,1.55,0,0,1,2-.1l7,5.48H50.38a1.54,1.54,0,0,1,0,3.07Z"/></g></g></svg>