<svg id="Layer_1" data-name="Layer 1" xmlns="http://www.w3.org/2000/svg" viewBox="0 0 275.83 101.76"><defs><style>.cls-1{fill:#1f5f77;}</style></defs><path class="cls-1" d="M96.56,37.16a8.87,8.87,0,0,1-3.29-.68l-.44.51H92l-1.25-3,.74-.41a6.16,6.16,0,0,0,4.81,2.51c1.43,0,2.56-.72,2.56-1.67,0-1.48-2.1-1.86-4.15-2.48s-3.89-1.39-3.89-3.55c0-1.81,1.86-2.86,4-2.86a7.23,7.23,0,0,1,2.79.56l.43-.49h.71l1.2,2.71-.67.41A5,5,0,0,0,95,26.61c-1.42,0-2.37.54-2.37,1.35,0,1.27,1.55,1.74,3.27,2.22,2.18.61,4.65,1.26,4.65,3.67C100.58,35.67,98.85,37.16,96.56,37.16Z"/><path class="cls-1" d="M108.53,36.56a1.61,1.61,0,0,1-1.19.46,1.72,1.72,0,0,1-1.42-.57,3.19,3.19,0,0,1-2.14.69c-1.34,0-2.43-.62-2.43-1.88,0-1.7,2-2.19,2.94-2.45l1.42-.44v-.81c0-.77-.43-1.21-.95-1.21a1.2,1.2,0,0,0-1,.85c-.22.51-.45.84-.93.84a.71.71,0,0,1-.78-.75c0-.77,1-1.6,2.72-1.6s2.77.8,2.77,2.09V35.5a.81.81,0,0,0,1,.74Zm-2.82-3.33c-1,0-2.53.71-2.53,1.79a1.09,1.09,0,0,0,1.16,1.24A1.32,1.32,0,0,0,105.71,35Z"/><path class="cls-1" d="M117.24,36.87h-3.53v-.59c.5-.17.91-.33.91-1V32a1.08,1.08,0,0,0-1.18-1.23,2.64,2.64,0,0,0-1.44.62V35.3c0,.74.51.87.89,1v.61h-3.7v-.62c.48-.13,1.06-.3,1.06-1V32.83c0-.83-.41-1-.61-1l-.44,0v-.63a8,8,0,0,0,1.08-.49,9.25,9.25,0,0,0,1.07-.68H112v.55a3.79,3.79,0,0,1,2.24-.75,1.88,1.88,0,0,1,2.12,2.12V35.1a1.06,1.06,0,0,0,.88,1.15Z"/><path class="cls-1" d="M128.6,31.43h-2.33v3.39c0,1,.61,1.22,1.36,1.37v.68h-4.72v-.68c.58-.07,1.39-.35,1.39-1.27V28c0-1-1-1.45-1.57-1.56v-.65h5.67c2.82,0,4.07,1.19,4.07,2.69S131.46,31.43,128.6,31.43Zm-.77-4.76c-1.09,0-1.56.18-1.56,1.1v2.68h2a1.94,1.94,0,0,0,2.14-1.94C130.37,27.21,129.28,26.67,127.83,26.67Z"/><path class="cls-1" d="M138.77,34.72c-.52,1.29-1.3,2.4-3,2.4a3.46,3.46,0,0,1-3.6-3.69,3.53,3.53,0,0,1,3.49-3.74,2.85,2.85,0,0,1,3.1,2.63c0,.22,0,.29-.15.29h-4.51c0,.24,0,.48,0,.75,0,2,.73,2.93,1.82,2.93A2.41,2.41,0,0,0,138,34.42Zm-2.12-2.78c0-.41-.13-1.49-1.08-1.49-.72,0-1.19.46-1.4,1.49Z"/><path class="cls-1" d="M147.38,36.87h-2.7v-.31A2.8,2.8,0,0,1,143,37a3.25,3.25,0,0,1-3.43-3.44c0-2.23,1.3-3.86,3.52-3.86a3.52,3.52,0,0,1,1.58.34V28.69c0-.83-.41-1-.62-1l-.43,0V27a9.52,9.52,0,0,0,1.08-.51,6.44,6.44,0,0,0,1.07-.68h.69v9.53c0,.74.52.86.91,1Zm-2.7-5.72a1.24,1.24,0,0,0-1.15-.73c-1.36,0-2,1.35-2,3.09s.89,2.78,1.78,2.78a1.65,1.65,0,0,0,1.39-.85Z"/><path class="cls-1" d="M153.5,31.33c-.53,0-.81-.28-1.18-.28s-1,.58-1.36,1.2v3.08c0,.74.6.86,1,1v.58H148.1v-.59c.48-.13,1.06-.3,1.06-1.05V32.85c0-.84-.41-1-.61-1l-.44,0v-.63a8,8,0,0,0,1.08-.49,9,9,0,0,0,1.06-.68H151V31a3.21,3.21,0,0,1,2.26-1.26.92.92,0,0,1,1,.81A.75.75,0,0,1,153.5,31.33Z"/><path class="cls-1" d="M158.18,37.13a3.35,3.35,0,0,1-3.69-3.49,3.68,3.68,0,0,1,3.72-3.95,3.72,3.72,0,0,1,0,7.44Zm0-6.73c-1.06,0-1.88.82-1.88,3.07s.8,2.92,1.81,2.92,1.86-1.08,1.86-3S159.25,30.4,158.19,30.4Z"/><path class="cls-1" d="M184.29,26.51a2.61,2.61,0,0,0-1.55,1.6l-3.13,8.76h-1.16l-2.64-7.27-2.59,7.27H172L168.88,28a2.15,2.15,0,0,0-1.76-1.49v-.66h4.64v.71c-.4.12-.94.32-.94.89a1.14,1.14,0,0,0,.09.42l2.15,5.87L175,28.2a1.06,1.06,0,0,0,.07-.38c0-.76-.86-1.22-1.29-1.31v-.69h4.47v.68c-.4.11-.95.37-.95.9a1.21,1.21,0,0,0,.07.37l2.16,5.84,2-5.54a1.35,1.35,0,0,0,.08-.42,1.26,1.26,0,0,0-1.1-1.14v-.69h3.81Z"/><path class="cls-1" d="M189.62,34.72c-.53,1.29-1.31,2.4-3,2.4a3.45,3.45,0,0,1-3.6-3.69,3.53,3.53,0,0,1,3.48-3.74,2.86,2.86,0,0,1,3.11,2.63c0,.22,0,.29-.16.29h-4.51c0,.24,0,.48,0,.75,0,2,.73,2.93,1.82,2.93s1.73-.8,2.13-1.87Zm-2.13-2.78c0-.41-.13-1.49-1.08-1.49-.72,0-1.19.46-1.4,1.49Z"/><path class="cls-1" d="M194.25,37.14a2.93,2.93,0,0,1-1.94-.69l-.53.42h-.88V28.69c0-.83-.41-1-.62-1l-.42,0V27a8.65,8.65,0,0,0,1.07-.51A6.44,6.44,0,0,0,192,25.8h.69v4.57a2.62,2.62,0,0,1,1.86-.65,3,3,0,0,1,3.13,3.37C197.68,35.33,196.42,37.14,194.25,37.14Zm0-6.62a1.89,1.89,0,0,0-1.55.94v4.08a1.55,1.55,0,0,0,1.3.78c1,0,1.9-.89,1.9-3S195.06,30.52,194.24,30.52Z"/><path class="cls-1" d="M203,32.9h-4V31.81h4Z"/><path class="cls-1" d="M207.91,37.14a3,3,0,0,1-1.94-.69l-.52.42h-.88V28.69c0-.83-.41-1-.63-1l-.42,0V27a9.52,9.52,0,0,0,1.08-.51,6.75,6.75,0,0,0,1.06-.68h.69v4.57a2.64,2.64,0,0,1,1.86-.65,3,3,0,0,1,3.13,3.37C211.34,35.33,210.08,37.14,207.91,37.14Zm0-6.62a1.89,1.89,0,0,0-1.55.94v4.08a1.56,1.56,0,0,0,1.31.78c1,0,1.9-.89,1.9-3S208.72,30.52,207.9,30.52Z"/><path class="cls-1" d="M219.25,36.56a1.58,1.58,0,0,1-1.19.46,1.73,1.73,0,0,1-1.42-.57,3.15,3.15,0,0,1-2.14.69c-1.33,0-2.42-.62-2.42-1.88,0-1.7,2-2.19,2.93-2.45l1.42-.44v-.81c0-.77-.42-1.21-1-1.21a1.2,1.2,0,0,0-1,.85c-.23.51-.45.84-.93.84a.71.71,0,0,1-.78-.75c0-.77,1-1.6,2.72-1.6s2.76.8,2.76,2.09V35.5a.82.82,0,0,0,1,.74Zm-2.82-3.33c-1,0-2.52.71-2.52,1.79a1.09,1.09,0,0,0,1.16,1.24A1.31,1.31,0,0,0,216.43,35Z"/><path class="cls-1" d="M223.43,37.16a2.93,2.93,0,0,1-1.84-.5l-.38.33h-.67l-.84-2.09.66-.29a3.92,3.92,0,0,0,3,1.74c1,0,1.63-.45,1.63-1,0-.93-1.45-1.09-2.79-1.44-1.16-.33-2.24-.8-2.24-2.09s1.26-2.09,2.8-2.09a3.26,3.26,0,0,1,1.55.42l.44-.35h.48l.63,1.78-.66.31a2.88,2.88,0,0,0-2.32-1.37c-.78,0-1.38.27-1.38.76,0,.8,1.12,1,2.27,1.27s2.58.72,2.58,2.19A2.66,2.66,0,0,1,223.43,37.16Z"/><path class="cls-1" d="M233.77,34.72c-.53,1.29-1.31,2.4-3,2.4a3.45,3.45,0,0,1-3.6-3.69,3.53,3.53,0,0,1,3.48-3.74,2.86,2.86,0,0,1,3.11,2.63c0,.22,0,.29-.16.29h-4.51c0,.24,0,.48,0,.75,0,2,.72,2.93,1.81,2.93s1.73-.8,2.13-1.87Zm-2.13-2.78c0-.41-.13-1.49-1.08-1.49-.72,0-1.19.46-1.4,1.49Z"/><path class="cls-1" d="M242.37,36.87h-2.69v-.31A2.86,2.86,0,0,1,238,37a3.26,3.26,0,0,1-3.43-3.44c0-2.23,1.31-3.86,3.52-3.86a3.56,3.56,0,0,1,1.59.34V28.69c0-.83-.41-1-.63-1l-.42,0V27a10.4,10.4,0,0,0,1.08-.51,6.75,6.75,0,0,0,1.06-.68h.69v9.53c0,.74.53.86.91,1Zm-2.69-5.72a1.26,1.26,0,0,0-1.15-.73c-1.36,0-2,1.35-2,3.09s.89,2.78,1.79,2.78a1.67,1.67,0,0,0,1.39-.85Z"/><path class="cls-1" d="M122.16,60.64h-8.51V59.42c1.24-.15,2.38-.44,2.38-2.07V50.68h-8.74v6.65c0,1.52,1.24,2,2.61,2.09v1.22h-8.51V59.42c1.22-.15,2.38-.44,2.38-2.07V43.88c0-1.52-1.06-1.91-2.38-2.14V40.47h8.46v1.22c-1.17.18-2.56.75-2.56,2.22v5H116v-5c0-1.52-1-1.91-2.36-2.14V40.47h8.46v1.32c-1.19.18-2.59.65-2.59,2.12V57.33c0,1.52,1.25,2,2.62,2.09Z"/><path class="cls-1" d="M135.73,49.05a3.87,3.87,0,0,0-2.41,2.51l-3.75,9.93c-1,2.74-2.3,4.4-4.57,4.4-1.37,0-2.49-.8-2.49-1.94a1.18,1.18,0,0,1,1.24-1.24c1.17,0,1.3,1.21,2,1.21s1-.23,1.58-1.52l.85-1.89L124,50.58a2.64,2.64,0,0,0-2-1.47V48h6.7v1.06c-.57.16-1.32.47-1.32,1.24a1.7,1.7,0,0,0,.16.65l2.33,5.3,2.09-5.33a1.53,1.53,0,0,0,.13-.62c0-.75-.78-1-1.37-1.24V48h5.07Z"/><path class="cls-1" d="M149.76,60.64h-4.91v-.57a5.23,5.23,0,0,1-3,.88,6,6,0,0,1-6.26-6.28c0-4.06,2.38-7,6.41-7a6.52,6.52,0,0,1,2.9.62V45.72c0-1.53-.75-1.84-1.14-1.89l-.77-.08V42.62a19.19,19.19,0,0,0,2-.93,11.91,11.91,0,0,0,1.94-1.25h1.27V57.82c0,1.34.95,1.58,1.65,1.76Zm-4.91-10.45a2.29,2.29,0,0,0-2.09-1.32c-2.49,0-3.7,2.46-3.7,5.64s1.63,5.07,3.26,5.07A3.06,3.06,0,0,0,144.85,58Z"/><path class="cls-1" d="M160.28,50.53c-.95,0-1.47-.52-2.14-.52s-1.92,1.06-2.48,2.2v5.61c0,1.34,1.08,1.58,1.78,1.76v1.06h-7V59.55c.88-.23,1.94-.54,1.94-1.91V53.3c0-1.53-.75-1.84-1.11-1.89l-.8-.11V50.17a17.17,17.17,0,0,0,2-.91A13.47,13.47,0,0,0,154.36,48h1.3v2a5.79,5.79,0,0,1,4.11-2.31,1.68,1.68,0,0,1,1.88,1.48A1.38,1.38,0,0,1,160.28,50.53Z"/><path class="cls-1" d="M168.17,61.1c-4.27,0-6.72-2.61-6.72-6.36,0-4.13,2.68-7.21,6.77-7.21s6.7,3,6.7,7A6.55,6.55,0,0,1,168.17,61.1Zm0-12.28c-1.94,0-3.44,1.5-3.44,5.61s1.48,5.33,3.31,5.33,3.39-2,3.39-5.46S170.13,48.82,168.19,48.82Z"/><path class="cls-1" d="M181.84,60.64H175V59.55c.88-.23,1.94-.54,1.94-1.91V45.72c0-1.53-.75-1.84-1.11-1.89l-.8-.08V42.62a17.38,17.38,0,0,0,2-.93,11.91,11.91,0,0,0,1.94-1.25h1.29V57.82c0,1.34.94,1.58,1.63,1.76Z"/><path class="cls-1" d="M189.21,61.1c-4.27,0-6.72-2.61-6.72-6.36,0-4.13,2.69-7.21,6.77-7.21s6.7,3,6.7,7A6.55,6.55,0,0,1,189.21,61.1Zm0-12.28c-1.94,0-3.44,1.5-3.44,5.61s1.47,5.33,3.31,5.33,3.38-2,3.38-5.46S191.18,48.82,189.24,48.82Z"/><path class="cls-1" d="M209.61,50c-.8,0-1.22-.67-2-.67a1,1,0,0,0-.75.36,4.3,4.3,0,0,1,.8,2.54c0,3.28-2.35,5.06-5.48,5.06a7.47,7.47,0,0,1-1.89-.23c-.15.1-.41.31-.41.54,0,.93,2.27.86,4.6,1.09s4.91.77,4.91,3.18c0,3.31-4.14,4-6.69,4-1.79,0-6-.16-6-2.77a3,3,0,0,1,1.42-2.2,1.94,1.94,0,0,1-1.4-2c0-1.06,1.14-2.07,1.94-2.64a4.55,4.55,0,0,1-2-3.88c0-3.1,2.46-4.91,5.4-4.91A6.33,6.33,0,0,1,206,48.77a3.66,3.66,0,0,1,2.87-1.42c.88,0,2,.52,2,1.5A1.22,1.22,0,0,1,209.61,50Zm-9.46,11.27a1.77,1.77,0,0,0-1,1.32c0,1.58,2.14,1.92,3.33,1.92,1,0,4-.26,4-1.71C206.53,61.13,201.28,61.36,200.15,61.28Zm2-12.3c-1.89,0-2.28,2-2.28,3.54s.6,3.31,2.35,3.31,2.28-2.12,2.28-3.47S203.92,49,202.14,49Z"/><path class="cls-1" d="M217.18,60.64h-6.85V59.55c.88-.23,1.94-.54,1.94-1.91V53.3c0-1.53-.75-1.84-1.11-1.89l-.8-.11V50.17a18,18,0,0,0,2-.91A14.06,14.06,0,0,0,214.26,48h1.29v9.8c0,1.34.93,1.58,1.63,1.76ZM213.9,44.25a1.89,1.89,0,1,1,1.89-1.89A1.9,1.9,0,0,1,213.9,44.25Z"/><path class="cls-1" d="M229.62,56.89a5.5,5.5,0,0,1-5.41,4.19A6.13,6.13,0,0,1,218,54.56c0-4.68,2.68-7,6.31-7,3.07,0,4.88,1.7,4.88,3a1.36,1.36,0,0,1-1.39,1.48,1.56,1.56,0,0,1-1.63-1.3c-.24-.77-.88-1.94-2-1.94s-2.74,1.22-2.74,5.59c0,3.67,1.29,5.17,3.05,5.17,2,0,3.41-1.89,3.8-3.26Z"/><path class="cls-1" d="M120.43,77.67h-5V77c.72-.1,1.41-.26,1.41-1.23V67.66c0-.91-.63-1.14-1.41-1.28v-.72h5v.75c-.69.11-1.52.39-1.52,1.27v8c0,.91.72,1.17,1.52,1.25Z"/><path class="cls-1" d="M130.29,77.67h-3.84V77c.54-.18,1-.35,1-1.12V72.36A1.18,1.18,0,0,0,126.16,71a2.82,2.82,0,0,0-1.57.68V76c0,.8.56.94,1,1.05v.66h-4V77c.53-.14,1.16-.32,1.16-1.14V73.28c0-.91-.45-1.09-.67-1.12l-.47,0v-.68a9.23,9.23,0,0,0,1.17-.53,9.7,9.7,0,0,0,1.15-.74h.71v.6a4.13,4.13,0,0,1,2.43-.82,2,2,0,0,1,2.31,2.31v3.5a1.14,1.14,0,0,0,1,1.24Z"/><path class="cls-1" d="M136.54,67.82c-.81,0-.81-1.22-1.38-1.22-.39,0-.83.32-.83,1.71v1.83h1.34v.77h-1.34v4.87A1.22,1.22,0,0,0,135.45,77v.66h-4.36V77c.49-.07,1.28-.41,1.28-1.23V70.91h-1.23v-.77h1.23V68.72a2.8,2.8,0,0,1,3-3c1.36,0,1.94.66,1.94,1.23A.75.75,0,0,1,136.54,67.82Z"/><path class="cls-1" d="M140.49,78c-2.54,0-4-1.56-4-3.79a4,4,0,0,1,4-4.3,4,4,0,0,1,0,8.09Zm0-7.32c-1.15,0-2.05.9-2.05,3.35s.88,3.17,2,3.17,2-1.17,2-3.25S141.66,70.63,140.5,70.63Z"/><path class="cls-1" d="M151.19,71.65c-.57,0-.88-.31-1.28-.31s-1.14.63-1.47,1.31V76c0,.8.64.94,1.06,1.05v.63h-4.17V77c.52-.13,1.15-.32,1.15-1.14V73.3c0-.91-.45-1.1-.66-1.13l-.48-.06v-.68a8.11,8.11,0,0,0,1.17-.53,9.93,9.93,0,0,0,1.16-.74h.77v1.17A3.41,3.41,0,0,1,150.88,70c.77,0,1.13.5,1.13.87A.82.82,0,0,1,151.19,71.65Z"/><path class="cls-1" d="M165.61,77.67h-3.85V77c.54-.18,1-.35,1-1.12V72.36A1.18,1.18,0,0,0,161.47,71a2.44,2.44,0,0,0-1.42.68,3.31,3.31,0,0,1,0,.55v3.5a1.14,1.14,0,0,0,1,1.24v.68h-3.83V77c.53-.18,1-.35,1-1.12V72.36A1.18,1.18,0,0,0,156.92,71a2.3,2.3,0,0,0-1.41.68V76c0,.8.55.94,1,1.05v.66H152.4V77c.52-.14,1.15-.32,1.15-1.14V73.28c0-.91-.45-1.09-.66-1.12l-.48,0v-.68a8.11,8.11,0,0,0,1.17-.53,9.93,9.93,0,0,0,1.16-.74h.77v.6a3.57,3.57,0,0,1,2.28-.82,2.09,2.09,0,0,1,2,1,4,4,0,0,1,2.54-1,2,2,0,0,1,2.3,2.31v3.5a1.13,1.13,0,0,0,1,1.24Z"/><path class="cls-1" d="M174.11,77.33a1.73,1.73,0,0,1-1.29.49,1.85,1.85,0,0,1-1.54-.61A3.48,3.48,0,0,1,169,78c-1.44,0-2.63-.67-2.63-2,0-1.85,2.17-2.38,3.19-2.67l1.54-.48V71.9c0-.84-.46-1.31-1-1.31a1.27,1.27,0,0,0-1.11.92c-.25.56-.49.91-1,.91a.77.77,0,0,1-.84-.82c0-.83,1.13-1.74,2.95-1.74s3,.88,3,2.28v4a.88.88,0,0,0,1.11.8Zm-3.06-3.62c-1.09.05-2.74.77-2.74,1.94A1.2,1.2,0,0,0,169.57,77a1.43,1.43,0,0,0,1.48-1.37Z"/><path class="cls-1" d="M179.43,77.62a3,3,0,0,1-1.39.31,2.18,2.18,0,0,1-2.48-2.37V70.85h-1v-.42A4,4,0,0,0,176,69.2a7.62,7.62,0,0,0,.9-1.77h.61v2.71h1.9v.71h-1.9V75.7c0,1.06.54,1.4,1.24,1.4a1.14,1.14,0,0,0,.69-.21Z"/><path class="cls-1" d="M184.57,77.67h-4.08V77c.53-.13,1.16-.32,1.16-1.14V73.3c0-.91-.45-1.1-.66-1.13l-.48-.06v-.68a9.23,9.23,0,0,0,1.17-.53,8.94,8.94,0,0,0,1.15-.74h.77V76c0,.8.56.94,1,1.05Zm-1.95-9.76a1.13,1.13,0,1,1,1.12-1.13A1.14,1.14,0,0,1,182.62,67.91Z"/><path class="cls-1" d="M189.13,78c-2.54,0-4-1.56-4-3.79a4,4,0,0,1,4-4.3,4,4,0,0,1,0,8.09Zm0-7.32c-1.16,0-2.05.9-2.05,3.35s.88,3.17,2,3.17,2-1.17,2-3.25S190.3,70.63,189.15,70.63Z"/><path class="cls-1" d="M202.72,77.67h-3.84V77c.54-.18,1-.35,1-1.12V72.36A1.18,1.18,0,0,0,198.59,71a2.82,2.82,0,0,0-1.57.68V76c0,.8.55.94,1,1.05v.66h-4V77c.52-.14,1.16-.32,1.16-1.14V73.28c0-.91-.45-1.09-.67-1.12l-.47,0v-.68a9.23,9.23,0,0,0,1.17-.53,9.7,9.7,0,0,0,1.15-.74H197v.6a4.13,4.13,0,0,1,2.43-.82,2,2,0,0,1,2.31,2.31v3.5a1.14,1.14,0,0,0,1,1.24Z"/><path class="cls-1" d="M215.06,71.76h-2.53v3.68c0,1,.66,1.32,1.48,1.49v.74h-5.13v-.74c.63-.08,1.51-.38,1.51-1.38V68.06c0-1.11-1.08-1.57-1.71-1.69v-.71h6.16c3.07,0,4.42,1.29,4.42,2.93S218.17,71.76,215.06,71.76Zm-.83-5.18c-1.19,0-1.7.2-1.7,1.2v2.91h2.13a2.1,2.1,0,0,0,2.32-2.1C217,67.17,215.8,66.58,214.23,66.58Z"/><path class="cls-1" d="M222.93,78c-2.54,0-4-1.56-4-3.79a4,4,0,0,1,4-4.3,4,4,0,0,1,0,8.09Zm0-7.32c-1.15,0-2,.9-2,3.35s.88,3.17,2,3.17,2-1.17,2-3.25S224.1,70.63,222.94,70.63Z"/><path class="cls-1" d="M233.63,71.65c-.56,0-.87-.31-1.27-.31s-1.14.63-1.48,1.31V76c0,.8.65.94,1.06,1.05v.63h-4.17V77c.52-.13,1.15-.32,1.15-1.14V73.3c0-.91-.44-1.1-.66-1.13l-.48-.06v-.68A8.11,8.11,0,0,0,229,70.9a9.14,9.14,0,0,0,1.16-.74h.77v1.17A3.43,3.43,0,0,1,233.33,70c.77,0,1.12.5,1.12.87A.82.82,0,0,1,233.63,71.65Z"/><path class="cls-1" d="M239.43,77.62a3,3,0,0,1-1.39.31,2.17,2.17,0,0,1-2.48-2.37V70.85h-1v-.42A4,4,0,0,0,236,69.2a8,8,0,0,0,.9-1.77h.61v2.71h1.9v.71h-1.9V75.7c0,1.06.54,1.4,1.23,1.4a1.15,1.15,0,0,0,.7-.21Z"/><path class="cls-1" d="M247.82,77.33a1.74,1.74,0,0,1-1.29.49,1.85,1.85,0,0,1-1.54-.61,3.5,3.5,0,0,1-2.33.75c-1.44,0-2.63-.67-2.63-2,0-1.85,2.17-2.38,3.19-2.67l1.54-.48V71.9c0-.84-.47-1.31-1-1.31a1.27,1.27,0,0,0-1.11.92c-.25.56-.5.91-1,.91a.78.78,0,0,1-.85-.82c0-.83,1.14-1.74,3-1.74s3,.88,3,2.28v4a.88.88,0,0,0,1.11.8Zm-3.06-3.62c-1.1.05-2.74.77-2.74,1.94A1.19,1.19,0,0,0,243.28,77a1.43,1.43,0,0,0,1.48-1.37Z"/><path class="cls-1" d="M252.63,77.67h-4.08V77c.52-.13,1.15-.32,1.15-1.14V68.79c0-.91-.44-1.1-.66-1.13l-.48,0v-.68a9.61,9.61,0,0,0,1.17-.56,6.15,6.15,0,0,0,1.16-.74h.77V76c0,.8.55.94,1,1.05Z"/><path class="cls-1" d="M51.53,79.21a1.54,1.54,0,0,1,0-3.07A25.34,25.34,0,0,0,64.6,72.5H33.81a1.56,1.56,0,0,1-1-.38A28.3,28.3,0,0,1,27,65a1.5,1.5,0,0,1,0-1.53,1.52,1.52,0,0,1,1.33-.77H73.84a24.79,24.79,0,0,0,1.58-3.62H32.49l-6.93,0a1.55,1.55,0,0,1-1.48-1.16,28.48,28.48,0,0,1-.87-7,1.53,1.53,0,0,1,1.53-1.54H78.33a1.54,1.54,0,0,1,0,3.07h-52A25.39,25.39,0,0,0,26.8,56l5.7,0h45a1.54,1.54,0,0,1,1.22.6A1.52,1.52,0,0,1,79,58,28.28,28.28,0,0,1,76.08,65a1.53,1.53,0,0,1-1.33.77H31.16a26,26,0,0,0,3.24,3.63l34.88,0h0a1.54,1.54,0,0,1,1,2.69A28.31,28.31,0,0,1,51.53,79.21Z"/><path class="cls-1" d="M77.48,45.72A1.54,1.54,0,0,1,76,44.56a25.26,25.26,0,0,0-48.34-1.91h7.09l8-6.16a1.55,1.55,0,0,1,1.9,0l7.46,5.94H67.34a1.54,1.54,0,1,1,0,3.07H51.53a1.51,1.51,0,0,1-1-.34l-6.94-5.52L36.21,45.4a1.59,1.59,0,0,1-.94.32H25.59A1.54,1.54,0,0,1,24.1,43.8,28.34,28.34,0,0,1,79,43.8a1.53,1.53,0,0,1-1.11,1.87A1.58,1.58,0,0,1,77.48,45.72Z"/><path class="cls-1" d="M73.59,38.41H58.51a1.53,1.53,0,0,1-.94-.32l-6.41-5-3,2.85A1.52,1.52,0,0,1,46,35.9a1.54,1.54,0,0,1,0-2.17L50,30a1.55,1.55,0,0,1,2-.1l7,5.48H73.59a1.54,1.54,0,0,1,0,3.07Z"/></svg>