<svg xmlns="http://www.w3.org/2000/svg" width="191.729" height="224.816" viewBox="0 0 191.729 224.816">
  <g id="Group_540" data-name="Group 540" transform="translate(-100 -137)">
    <g id="Group_527" data-name="Group 527" transform="translate(100 137)" opacity="0.5">
      <path id="Path_359" data-name="Path 359" d="M0,0H191.729V191.729H0Z" fill="none"/>
      <path id="Path_360" data-name="Path 360" d="M2,100.278H21.656v88.45H2Zm29.483,19.656H51.139v68.795H31.483ZM139.589,60.967h19.656V188.729H139.589Zm29.483,19.656h19.656V188.729H169.073ZM70.795,2H90.45V188.729H70.795Zm29.483,19.656h19.656V188.729H100.278Z" fill="#e2e2e2"/>
    </g>
    <path id="Path_368" data-name="Path 368" d="M7.152-9.944a.226.226,0,0,1-.208.136.461.461,0,0,1-.268-.148,3.5,3.5,0,0,0-.444-.328,3.51,3.51,0,0,0-.7-.332A3.067,3.067,0,0,0,4.5-10.768a3.07,3.07,0,0,0-1.084.176,2.262,2.262,0,0,0-.784.48,2.043,2.043,0,0,0-.48.7,2.193,2.193,0,0,0-.164.84,1.717,1.717,0,0,0,.244.952,2.2,2.2,0,0,0,.644.64,4.168,4.168,0,0,0,.908.444q.508.18,1.044.356t1.044.388a3.764,3.764,0,0,1,.908.532,2.441,2.441,0,0,1,.644.788A2.5,2.5,0,0,1,7.664-3.3a3.667,3.667,0,0,1-.244,1.34A3.127,3.127,0,0,1,6.712-.872,3.324,3.324,0,0,1,5.576-.14,4.121,4.121,0,0,1,4.04.128a4.341,4.341,0,0,1-1.928-.4A4.543,4.543,0,0,1,.7-1.352L.92-1.7a.281.281,0,0,1,.224-.12.32.32,0,0,1,.184.1l.272.236q.16.14.384.3a3.181,3.181,0,0,0,.52.3,3.679,3.679,0,0,0,.68.236,3.606,3.606,0,0,0,.872.1,3.311,3.311,0,0,0,1.2-.2,2.626,2.626,0,0,0,.892-.556A2.357,2.357,0,0,0,6.7-2.148,2.784,2.784,0,0,0,6.9-3.184a1.827,1.827,0,0,0-.244-.988,2.1,2.1,0,0,0-.644-.648A4.154,4.154,0,0,0,5.1-5.256Q4.592-5.432,4.056-5.6T3.012-5.976A3.6,3.6,0,0,1,2.1-6.508a2.435,2.435,0,0,1-.644-.808,2.68,2.68,0,0,1-.244-1.212,2.868,2.868,0,0,1,.216-1.1,2.726,2.726,0,0,1,.632-.932A3.1,3.1,0,0,1,3.092-11.2a3.746,3.746,0,0,1,1.4-.244,4.224,4.224,0,0,1,1.58.28,3.787,3.787,0,0,1,1.276.856Zm5.5,1.856a3.279,3.279,0,0,1,1.244.232,2.8,2.8,0,0,1,.992.676,3.118,3.118,0,0,1,.656,1.092A4.335,4.335,0,0,1,15.784-4.6a.4.4,0,0,1-.052.24.2.2,0,0,1-.164.064H9.816v.152a5.4,5.4,0,0,0,.208,1.576,3.229,3.229,0,0,0,.592,1.14,2.441,2.441,0,0,0,.928.692A3.07,3.07,0,0,0,12.76-.5,3.639,3.639,0,0,0,13.8-.636a3.876,3.876,0,0,0,.74-.3,4.057,4.057,0,0,0,.476-.3.54.54,0,0,1,.256-.132.184.184,0,0,1,.16.08l.208.256a2.171,2.171,0,0,1-.508.448,3.626,3.626,0,0,1-.7.356A5.129,5.129,0,0,1,13.6.016,4.577,4.577,0,0,1,12.7.1,3.785,3.785,0,0,1,11.216-.18a3.154,3.154,0,0,1-1.152-.828,3.769,3.769,0,0,1-.74-1.332,5.751,5.751,0,0,1-.26-1.8,4.92,4.92,0,0,1,.244-1.58,3.618,3.618,0,0,1,.7-1.248,3.208,3.208,0,0,1,1.128-.82A3.706,3.706,0,0,1,12.656-8.088Zm.008.568a3,3,0,0,0-1.1.192,2.415,2.415,0,0,0-.844.552,2.816,2.816,0,0,0-.576.864,3.933,3.933,0,0,0-.292,1.128H15.1a3.494,3.494,0,0,0-.176-1.148,2.454,2.454,0,0,0-.5-.86,2.147,2.147,0,0,0-.768-.54A2.539,2.539,0,0,0,12.664-7.52Zm6.152-4.12V0h-.76V-11.64Zm5.816,3.552a3.279,3.279,0,0,1,1.244.232,2.8,2.8,0,0,1,.992.676,3.118,3.118,0,0,1,.656,1.092A4.335,4.335,0,0,1,27.76-4.6a.4.4,0,0,1-.052.24.2.2,0,0,1-.164.064H21.792v.152A5.4,5.4,0,0,0,22-2.568a3.229,3.229,0,0,0,.592,1.14,2.441,2.441,0,0,0,.928.692A3.07,3.07,0,0,0,24.736-.5a3.639,3.639,0,0,0,1.04-.132,3.876,3.876,0,0,0,.74-.3,4.057,4.057,0,0,0,.476-.3.54.54,0,0,1,.256-.132.184.184,0,0,1,.16.08l.208.256a2.171,2.171,0,0,1-.508.448,3.626,3.626,0,0,1-.7.356,5.129,5.129,0,0,1-.832.236A4.577,4.577,0,0,1,24.68.1,3.785,3.785,0,0,1,23.192-.18a3.154,3.154,0,0,1-1.152-.828A3.77,3.77,0,0,1,21.3-2.34a5.751,5.751,0,0,1-.26-1.8,4.92,4.92,0,0,1,.244-1.58,3.618,3.618,0,0,1,.7-1.248,3.208,3.208,0,0,1,1.128-.82A3.706,3.706,0,0,1,24.632-8.088Zm.008.568a3,3,0,0,0-1.1.192,2.415,2.415,0,0,0-.844.552,2.816,2.816,0,0,0-.576.864,3.933,3.933,0,0,0-.292,1.128h5.248A3.494,3.494,0,0,0,26.9-5.932a2.454,2.454,0,0,0-.5-.86,2.147,2.147,0,0,0-.768-.54A2.539,2.539,0,0,0,24.64-7.52ZM35.048-6.9a.827.827,0,0,1-.076.068.159.159,0,0,1-.1.028.417.417,0,0,1-.22-.108,2.969,2.969,0,0,0-.372-.236,3.138,3.138,0,0,0-.58-.236,2.873,2.873,0,0,0-.844-.108,2.9,2.9,0,0,0-1.22.244,2.424,2.424,0,0,0-.9.7,3.209,3.209,0,0,0-.556,1.1,5.12,5.12,0,0,0-.192,1.456,5.146,5.146,0,0,0,.2,1.488A3.169,3.169,0,0,0,30.744-1.4a2.368,2.368,0,0,0,.872.676A2.721,2.721,0,0,0,32.752-.5a2.943,2.943,0,0,0,.964-.136,3.142,3.142,0,0,0,.64-.3,2.886,2.886,0,0,0,.4-.3.414.414,0,0,1,.236-.136.184.184,0,0,1,.16.08l.208.256a2.327,2.327,0,0,1-.464.448,3.147,3.147,0,0,1-.632.36A3.875,3.875,0,0,1,33.5.02,4.3,4.3,0,0,1,32.64.1a3.413,3.413,0,0,1-1.388-.276,3.009,3.009,0,0,1-1.08-.8,3.743,3.743,0,0,1-.7-1.284,5.48,5.48,0,0,1-.252-1.728,5.453,5.453,0,0,1,.24-1.664,3.744,3.744,0,0,1,.7-1.3,3.141,3.141,0,0,1,1.128-.844,3.7,3.7,0,0,1,1.532-.3,3.608,3.608,0,0,1,1.38.248,3.382,3.382,0,0,1,1.052.672ZM39.264.128A1.712,1.712,0,0,1,38-.32,1.876,1.876,0,0,1,37.552-1.7v-5.44H36.408a.213.213,0,0,1-.144-.048.169.169,0,0,1-.056-.136v-.3l1.36-.1.192-2.848a.22.22,0,0,1,.06-.128.182.182,0,0,1,.14-.056h.36v3.04h2.5v.568h-2.5v5.4a1.687,1.687,0,0,0,.084.564,1.053,1.053,0,0,0,.232.388.909.909,0,0,0,.348.224,1.266,1.266,0,0,0,.432.072,1.322,1.322,0,0,0,.5-.084,2.056,2.056,0,0,0,.36-.184,2.308,2.308,0,0,0,.248-.184.273.273,0,0,1,.152-.084.173.173,0,0,1,.128.08l.208.336a2.218,2.218,0,0,1-.772.54A2.408,2.408,0,0,1,39.264.128ZM50.96,0a.274.274,0,0,1-.3-.224L50.552-1.24a8.351,8.351,0,0,1-.652.576,3.911,3.911,0,0,1-.676.432,3.33,3.33,0,0,1-.76.268,4.075,4.075,0,0,1-.9.092,2.64,2.64,0,0,1-.792-.12A1.954,1.954,0,0,1,46.1-.36,1.806,1.806,0,0,1,45.62-1a2.2,2.2,0,0,1-.18-.932,1.655,1.655,0,0,1,.288-.936,2.366,2.366,0,0,1,.9-.752A5.939,5.939,0,0,1,48.2-4.128a13.706,13.706,0,0,1,2.316-.224v-.832a2.666,2.666,0,0,0-.476-1.7,1.7,1.7,0,0,0-1.412-.6,2.665,2.665,0,0,0-.98.16,3.47,3.47,0,0,0-.684.352,4.312,4.312,0,0,0-.456.352.494.494,0,0,1-.3.16.258.258,0,0,1-.24-.144l-.136-.232a4.626,4.626,0,0,1,1.312-.944,3.657,3.657,0,0,1,1.56-.32,2.846,2.846,0,0,1,1.12.2,2.069,2.069,0,0,1,.8.584,2.553,2.553,0,0,1,.476.92,4.231,4.231,0,0,1,.16,1.2V0Zm-3.2-.424a3.41,3.41,0,0,0,.852-.1,3.157,3.157,0,0,0,.72-.28,3.515,3.515,0,0,0,.62-.428q.288-.248.568-.536V-3.84a14.183,14.183,0,0,0-1.956.172,5.638,5.638,0,0,0-1.352.38,1.982,1.982,0,0,0-.784.572,1.218,1.218,0,0,0-.252.756,1.669,1.669,0,0,0,.132.692,1.377,1.377,0,0,0,.348.48,1.365,1.365,0,0,0,.5.276A2.042,2.042,0,0,0,47.76-.424ZM58.488,2.56a.545.545,0,0,1-.124.184.308.308,0,0,1-.22.072H57.6L59-.3,55.632-7.96h.632a.274.274,0,0,1,.188.06.386.386,0,0,1,.1.132l2.68,6.192q.048.12.084.244t.068.252q.04-.128.084-.252t.092-.244l2.648-6.192a.344.344,0,0,1,.112-.14.267.267,0,0,1,.16-.052h.584ZM67.4-8.088a3.279,3.279,0,0,1,1.244.232,2.8,2.8,0,0,1,.992.676,3.118,3.118,0,0,1,.656,1.092A4.335,4.335,0,0,1,70.528-4.6a.4.4,0,0,1-.052.24.2.2,0,0,1-.164.064H64.56v.152a5.4,5.4,0,0,0,.208,1.576,3.229,3.229,0,0,0,.592,1.14,2.441,2.441,0,0,0,.928.692A3.07,3.07,0,0,0,67.5-.5a3.639,3.639,0,0,0,1.04-.132,3.876,3.876,0,0,0,.74-.3,4.057,4.057,0,0,0,.476-.3.54.54,0,0,1,.256-.132.184.184,0,0,1,.16.08l.208.256a2.171,2.171,0,0,1-.508.448,3.626,3.626,0,0,1-.7.356,5.129,5.129,0,0,1-.832.236A4.577,4.577,0,0,1,67.448.1,3.785,3.785,0,0,1,65.96-.18a3.154,3.154,0,0,1-1.152-.828,3.769,3.769,0,0,1-.74-1.332,5.751,5.751,0,0,1-.26-1.8,4.92,4.92,0,0,1,.244-1.58,3.618,3.618,0,0,1,.7-1.248,3.208,3.208,0,0,1,1.128-.82A3.706,3.706,0,0,1,67.4-8.088Zm.008.568a3,3,0,0,0-1.1.192,2.416,2.416,0,0,0-.844.552,2.816,2.816,0,0,0-.576.864,3.933,3.933,0,0,0-.292,1.128H69.84a3.494,3.494,0,0,0-.176-1.148,2.454,2.454,0,0,0-.5-.86,2.147,2.147,0,0,0-.768-.54A2.539,2.539,0,0,0,67.408-7.52ZM77.656,0a.274.274,0,0,1-.3-.224L77.248-1.24a8.352,8.352,0,0,1-.652.576,3.911,3.911,0,0,1-.676.432,3.33,3.33,0,0,1-.76.268,4.075,4.075,0,0,1-.9.092,2.64,2.64,0,0,1-.792-.12,1.954,1.954,0,0,1-.68-.368A1.806,1.806,0,0,1,72.316-1a2.2,2.2,0,0,1-.18-.932,1.655,1.655,0,0,1,.288-.936,2.366,2.366,0,0,1,.9-.752A5.938,5.938,0,0,1,74.9-4.128a13.706,13.706,0,0,1,2.316-.224v-.832a2.666,2.666,0,0,0-.476-1.7,1.7,1.7,0,0,0-1.412-.6,2.665,2.665,0,0,0-.98.16,3.47,3.47,0,0,0-.684.352,4.312,4.312,0,0,0-.456.352.494.494,0,0,1-.3.16.258.258,0,0,1-.24-.144l-.136-.232a4.626,4.626,0,0,1,1.312-.944,3.657,3.657,0,0,1,1.56-.32,2.846,2.846,0,0,1,1.12.2,2.069,2.069,0,0,1,.8.584,2.553,2.553,0,0,1,.476.92,4.231,4.231,0,0,1,.16,1.2V0Zm-3.2-.424a3.41,3.41,0,0,0,.852-.1,3.157,3.157,0,0,0,.72-.28,3.515,3.515,0,0,0,.62-.428q.288-.248.568-.536V-3.84a14.183,14.183,0,0,0-1.956.172,5.638,5.638,0,0,0-1.352.38,1.982,1.982,0,0,0-.784.572,1.218,1.218,0,0,0-.252.756A1.669,1.669,0,0,0,73-1.268a1.377,1.377,0,0,0,.348.48,1.365,1.365,0,0,0,.5.276A2.042,2.042,0,0,0,74.456-.424ZM80.36,0V-7.96h.4a.282.282,0,0,1,.2.056.278.278,0,0,1,.068.192l.064,1.68a3.786,3.786,0,0,1,1.024-1.516A2.339,2.339,0,0,1,83.688-8.1a2.735,2.735,0,0,1,.664.076,2.546,2.546,0,0,1,.576.22l-.1.528a.145.145,0,0,1-.16.128.435.435,0,0,1-.136-.032q-.088-.032-.22-.072a2.628,2.628,0,0,0-.324-.072,2.7,2.7,0,0,0-.44-.032,2.048,2.048,0,0,0-1.484.56,4,4,0,0,0-.94,1.616V0ZM91.976.128a1.712,1.712,0,0,1-1.26-.448A1.876,1.876,0,0,1,90.264-1.7v-5.44H89.12a.213.213,0,0,1-.144-.048.169.169,0,0,1-.056-.136v-.3l1.36-.1.192-2.848a.22.22,0,0,1,.06-.128.182.182,0,0,1,.14-.056h.36v3.04h2.5v.568h-2.5v5.4a1.687,1.687,0,0,0,.084.564,1.053,1.053,0,0,0,.232.388.909.909,0,0,0,.348.224,1.266,1.266,0,0,0,.432.072,1.322,1.322,0,0,0,.5-.084,2.056,2.056,0,0,0,.36-.184,2.308,2.308,0,0,0,.248-.184.273.273,0,0,1,.152-.084.173.173,0,0,1,.128.08l.208.336a2.218,2.218,0,0,1-.772.54A2.408,2.408,0,0,1,91.976.128Zm6.56-8.216a3.828,3.828,0,0,1,1.532.292,3.122,3.122,0,0,1,1.14.828,3.668,3.668,0,0,1,.708,1.292,5.493,5.493,0,0,1,.244,1.692,5.454,5.454,0,0,1-.244,1.688,3.673,3.673,0,0,1-.708,1.288,3.083,3.083,0,0,1-1.14.824A3.875,3.875,0,0,1,98.536.1,3.875,3.875,0,0,1,97-.184a3.119,3.119,0,0,1-1.144-.824A3.638,3.638,0,0,1,95.148-2.3,5.454,5.454,0,0,1,94.9-3.984a5.493,5.493,0,0,1,.244-1.692,3.633,3.633,0,0,1,.712-1.292A3.16,3.16,0,0,1,97-7.8,3.828,3.828,0,0,1,98.536-8.088Zm0,7.592A2.958,2.958,0,0,0,99.78-.74a2.355,2.355,0,0,0,.888-.7,3.087,3.087,0,0,0,.532-1.1,5.479,5.479,0,0,0,.176-1.444,5.49,5.49,0,0,0-.176-1.44,3.126,3.126,0,0,0-.532-1.108,2.375,2.375,0,0,0-.888-.708,2.917,2.917,0,0,0-1.244-.248,2.917,2.917,0,0,0-1.244.248,2.375,2.375,0,0,0-.888.708,3.178,3.178,0,0,0-.536,1.108,5.375,5.375,0,0,0-.18,1.44,5.363,5.363,0,0,0,.18,1.444,3.138,3.138,0,0,0,.536,1.1,2.355,2.355,0,0,0,.888.7A2.959,2.959,0,0,0,98.536-.5Zm7.536-10.824h.648a.278.278,0,0,1,.184.06.4.4,0,0,1,.112.156l3.856,9.392a4.989,4.989,0,0,1,.248.784,4.378,4.378,0,0,1,.232-.784L115.2-11.1a.429.429,0,0,1,.116-.152.282.282,0,0,1,.188-.064h.64L111.472,0h-.728Zm12.472,3.36V0h-.76V-7.96Zm.336-2.744a.607.607,0,0,1-.06.268.8.8,0,0,1-.156.22.724.724,0,0,1-.224.152.671.671,0,0,1-.272.056.671.671,0,0,1-.272-.056.724.724,0,0,1-.224-.152.738.738,0,0,1-.152-.22.644.644,0,0,1-.056-.268.7.7,0,0,1,.056-.276.711.711,0,0,1,.152-.228.724.724,0,0,1,.224-.152.671.671,0,0,1,.272-.056.671.671,0,0,1,.272.056.724.724,0,0,1,.224.152.769.769,0,0,1,.156.228A.66.66,0,0,1,118.88-10.7Zm5.48,2.616a3.279,3.279,0,0,1,1.244.232,2.8,2.8,0,0,1,.992.676,3.118,3.118,0,0,1,.656,1.092,4.335,4.335,0,0,1,.236,1.488.4.4,0,0,1-.052.24.2.2,0,0,1-.164.064H121.52v.152a5.4,5.4,0,0,0,.208,1.576,3.229,3.229,0,0,0,.592,1.14,2.441,2.441,0,0,0,.928.692,3.07,3.07,0,0,0,1.216.232,3.639,3.639,0,0,0,1.04-.132,3.876,3.876,0,0,0,.74-.3,4.057,4.057,0,0,0,.476-.3.54.54,0,0,1,.256-.132.184.184,0,0,1,.16.08l.208.256a2.171,2.171,0,0,1-.508.448,3.626,3.626,0,0,1-.7.356,5.129,5.129,0,0,1-.832.236,4.577,4.577,0,0,1-.892.088A3.785,3.785,0,0,1,122.92-.18a3.154,3.154,0,0,1-1.152-.828,3.769,3.769,0,0,1-.74-1.332,5.751,5.751,0,0,1-.26-1.8,4.92,4.92,0,0,1,.244-1.58,3.618,3.618,0,0,1,.7-1.248,3.208,3.208,0,0,1,1.128-.82A3.706,3.706,0,0,1,124.36-8.088Zm.008.568a3,3,0,0,0-1.1.192,2.415,2.415,0,0,0-.844.552,2.816,2.816,0,0,0-.576.864,3.933,3.933,0,0,0-.292,1.128H126.8a3.494,3.494,0,0,0-.176-1.148,2.454,2.454,0,0,0-.5-.86,2.147,2.147,0,0,0-.768-.54A2.539,2.539,0,0,0,124.368-7.52Zm4.048-.44H129a.278.278,0,0,1,.184.06.3.3,0,0,1,.1.132l2.008,6.28a3.39,3.39,0,0,1,.088.352l.064.336q.04-.168.088-.336t.112-.352l2.136-6.336A.221.221,0,0,1,134-8h.312a.226.226,0,0,1,.232.176l2.1,6.336a6.536,6.536,0,0,1,.192.7q.032-.168.068-.34a2.883,2.883,0,0,1,.1-.356l2.016-6.28a.261.261,0,0,1,.272-.192h.56L137.192,0h-.56q-.128,0-.184-.168l-2.184-6.464q-.04-.12-.072-.24t-.056-.24q-.024.12-.052.24t-.068.24L131.808-.168Q131.76,0,131.616,0h-.536Z" transform="translate(129 359)" fill="#c7c7c7"/>
  </g>
</svg>
