<svg xmlns="http://www.w3.org/2000/svg" width="22" height="25" viewBox="0 0 22 25">
  <g id="Group_532" data-name="Group 532" transform="translate(957 -14888)">
    <g id="Group_528" data-name="Group 528" transform="translate(3)">
      <rect id="Rectangle_288" data-name="Rectangle 288" width="4" height="2" transform="translate(-960 14898)" fill="#e62929"/>
      <rect id="Rectangle_289" data-name="Rectangle 289" width="4" height="3" transform="translate(-960 14899)" fill="#2e93e6"/>
      <rect id="Rectangle_290" data-name="Rectangle 290" width="4" height="8" transform="translate(-960 14905)" fill="#2e93e6"/>
      <rect id="Rectangle_291" data-name="Rectangle 291" width="4" height="1" transform="translate(-960 14888)" fill="#e62929"/>
      <rect id="Rectangle_292" data-name="Rectangle 292" width="4" height="5" transform="translate(-960 14890)" fill="#2e93e6"/>
      <rect id="Rectangle_293" data-name="Rectangle 293" width="4" height="1" transform="translate(-960 14896)" fill="#2e93e6"/>
      <rect id="Rectangle_294" data-name="Rectangle 294" width="4" height="1" transform="translate(-960 14903)" fill="#2e93e6"/>
    </g>
    <g id="Group_529" data-name="Group 529" transform="translate(-1907 29801) rotate(180)">
      <rect id="Rectangle_288-2" data-name="Rectangle 288" width="4" height="2" transform="translate(-960 14898)" fill="#e62929"/>
      <rect id="Rectangle_289-2" data-name="Rectangle 289" width="4" height="3" transform="translate(-960 14899)" fill="#2e93e6"/>
      <rect id="Rectangle_290-2" data-name="Rectangle 290" width="4" height="8" transform="translate(-960 14905)" fill="#2e93e6"/>
      <rect id="Rectangle_291-2" data-name="Rectangle 291" width="4" height="1" transform="translate(-960 14888)" fill="#e62929"/>
      <rect id="Rectangle_292-2" data-name="Rectangle 292" width="4" height="5" transform="translate(-960 14890)" fill="#2e93e6"/>
      <rect id="Rectangle_293-2" data-name="Rectangle 293" width="4" height="1" transform="translate(-960 14896)" fill="#2e93e6"/>
      <rect id="Rectangle_294-2" data-name="Rectangle 294" width="4" height="1" transform="translate(-960 14903)" fill="#e62929"/>
    </g>
    <g id="Group_530" data-name="Group 530" transform="translate(-1901 29815) rotate(180)">
      <rect id="Rectangle_288-3" data-name="Rectangle 288" width="4" height="2" transform="translate(-960 14923)" fill="#e62929"/>
      <rect id="Rectangle_289-3" data-name="Rectangle 289" width="4" height="3" transform="translate(-960 14924)" fill="#2e93e6"/>
      <rect id="Rectangle_290-3" data-name="Rectangle 290" width="4" height="8" transform="translate(-960 14905)" fill="#2e93e6"/>
      <rect id="Rectangle_291-3" data-name="Rectangle 291" width="4" height="1" transform="translate(-960 14913)" fill="#e62929"/>
      <rect id="Rectangle_292-3" data-name="Rectangle 292" width="4" height="5" transform="translate(-960 14915)" fill="#2e93e6"/>
      <rect id="Rectangle_293-3" data-name="Rectangle 293" width="4" height="1" transform="translate(-960 14921)" fill="#2e93e6"/>
      <rect id="Rectangle_294-3" data-name="Rectangle 294" width="4" height="1" transform="translate(-960 14903)" fill="#e62929"/>
    </g>
    <g id="Group_533" data-name="Group 533" transform="translate(-1895 29801) rotate(180)">
      <rect id="Rectangle_288-4" data-name="Rectangle 288" width="4" height="2" transform="translate(-960 14898)" fill="#e62929"/>
      <rect id="Rectangle_289-4" data-name="Rectangle 289" width="4" height="3" transform="translate(-960 14899)" fill="#2e93e6"/>
      <rect id="Rectangle_290-4" data-name="Rectangle 290" width="4" height="8" transform="translate(-960 14905)" fill="#2e93e6"/>
      <rect id="Rectangle_291-4" data-name="Rectangle 291" width="4" height="1" transform="translate(-960 14888)" fill="#e62929"/>
      <rect id="Rectangle_292-4" data-name="Rectangle 292" width="4" height="2" transform="translate(-960 14889)" fill="#2e93e6"/>
      <rect id="Rectangle_293-4" data-name="Rectangle 293" width="4" height="1" transform="translate(-960 14896)" fill="#2e93e6"/>
      <rect id="Rectangle_294-4" data-name="Rectangle 294" width="4" height="1" transform="translate(-960 14903)" fill="#e62929"/>
      <rect id="Rectangle_295" data-name="Rectangle 295" width="4" height="1" transform="translate(-960 14894)" fill="#2e93e6"/>
      <rect id="Rectangle_296" data-name="Rectangle 296" width="4" height="1" transform="translate(-960 14892)" fill="#2e93e6"/>
    </g>
  </g>
</svg>
